<svg width="35" height="35" viewBox="0 0 25 26" fill="none" xmlns="http://www.w3.org/2000/svg">
<circle cx="12.5" cy="13" r="12.5" fill="#E72D2D"/>
<g clip-path="url(#clip0)">
<path d="M18.8639 12.0909C19.1149 12.0909 19.3291 12.1797 19.5067 12.3572C19.6842 12.5348 19.773 12.7491 19.773 13C19.773 13.251 19.6842 13.4652 19.5067 13.6428C19.3291 13.8203 19.1149 13.9091 18.8639 13.9091H18.7574L17.9406 18.6108C17.9027 18.8286 17.7986 19.0085 17.6281 19.1506C17.4577 19.2926 17.2635 19.3636 17.0457 19.3636H7.95481C7.73701 19.3636 7.54288 19.2926 7.37243 19.1506C7.20197 19.0085 7.0978 18.8286 7.05993 18.6108L6.24316 13.9091H6.13663C5.88568 13.9091 5.67143 13.8203 5.49387 13.6428C5.31632 13.4652 5.22754 13.251 5.22754 13C5.22754 12.7491 5.31632 12.5348 5.49387 12.3572C5.67143 12.1797 5.88568 12.0909 6.13663 12.0909H18.8639ZM8.67214 17.7727C8.79525 17.7633 8.89823 17.71 8.98109 17.6129C9.06395 17.5159 9.10065 17.4058 9.09118 17.2827L8.8639 14.3281C8.85443 14.205 8.80117 14.102 8.7041 14.0192C8.60704 13.9363 8.49695 13.8996 8.37385 13.9091C8.25074 13.9186 8.14776 13.9718 8.0649 14.0689C7.98204 14.166 7.94534 14.276 7.95481 14.3992L8.18208 17.3537C8.19155 17.4721 8.24009 17.5715 8.32768 17.652C8.41528 17.7325 8.51826 17.7727 8.63663 17.7727H8.67214ZM11.5912 17.3182V14.3636C11.5912 14.2405 11.5462 14.134 11.4562 14.044C11.3663 13.9541 11.2597 13.9091 11.1366 13.9091C11.0135 13.9091 10.907 13.9541 10.817 14.044C10.7271 14.134 10.6821 14.2405 10.6821 14.3636V17.3182C10.6821 17.4413 10.7271 17.5478 10.817 17.6378C10.907 17.7278 11.0135 17.7727 11.1366 17.7727C11.2597 17.7727 11.3663 17.7278 11.4562 17.6378C11.5462 17.5478 11.5912 17.4413 11.5912 17.3182ZM14.3184 17.3182V14.3636C14.3184 14.2405 14.2735 14.134 14.1835 14.044C14.0935 13.9541 13.987 13.9091 13.8639 13.9091C13.7408 13.9091 13.6343 13.9541 13.5443 14.044C13.4543 14.134 13.4094 14.2405 13.4094 14.3636V17.3182C13.4094 17.4413 13.4543 17.5478 13.5443 17.6378C13.6343 17.7278 13.7408 17.7727 13.8639 17.7727C13.987 17.7727 14.0935 17.7278 14.1835 17.6378C14.2735 17.5478 14.3184 17.4413 14.3184 17.3182ZM16.8184 17.3537L17.0457 14.3992C17.0552 14.276 17.0185 14.166 16.9356 14.0689C16.8528 13.9718 16.7498 13.9186 16.6267 13.9091C16.5036 13.8996 16.3935 13.9363 16.2964 14.0192C16.1994 14.102 16.1461 14.205 16.1366 14.3281L15.9094 17.2827C15.8999 17.4058 15.9366 17.5159 16.0194 17.6129C16.1023 17.71 16.2053 17.7633 16.3284 17.7727H16.3639C16.4823 17.7727 16.5853 17.7325 16.6729 17.652C16.7604 17.5715 16.809 17.4721 16.8184 17.3537ZM8.60822 8.71023L7.94771 11.6364H7.01021L7.72754 8.50427C7.8175 8.0876 8.0282 7.74787 8.35964 7.48509C8.69108 7.22231 9.06987 7.09091 9.49601 7.09091H10.6821C10.6821 6.96781 10.7271 6.86127 10.817 6.77131C10.907 6.68135 11.0135 6.63637 11.1366 6.63637H13.8639C13.987 6.63637 14.0935 6.68135 14.1835 6.77131C14.2735 6.86127 14.3184 6.96781 14.3184 7.09091H15.5045C15.9307 7.09091 16.3095 7.22231 16.6409 7.48509C16.9723 7.74787 17.183 8.0876 17.273 8.50427L17.9903 11.6364H17.0528L16.3923 8.71023C16.3402 8.5019 16.2325 8.33144 16.0692 8.19887C15.9058 8.06629 15.7176 8 15.5045 8H14.3184C14.3184 8.12311 14.2735 8.22964 14.1835 8.31961C14.0935 8.40957 13.987 8.45455 13.8639 8.45455H11.1366C11.0135 8.45455 10.907 8.40957 10.817 8.31961C10.7271 8.22964 10.6821 8.12311 10.6821 8H9.49601C9.28294 8 9.09473 8.06629 8.93137 8.19887C8.76802 8.33144 8.6603 8.5019 8.60822 8.71023Z" fill="white"/>
</g>
<defs>
<clipPath id="clip0">
<rect x="5.22754" y="6.63637" width="14.5455" height="12.7273" fill="white"/>
</clipPath>
</defs>
</svg>
