<svg width="34" height="39" viewBox="0 0 34 39" fill="none" xmlns="http://www.w3.org/2000/svg">
<g filter="url(#filter0_d)">
<path d="M28.4583 4.52985H22.2083V2.92271C22.2083 2.21231 21.934 1.53101 21.4456 1.02868C20.9572 0.526346 20.2948 0.244141 19.6042 0.244141H14.3958C13.7052 0.244141 13.0428 0.526346 12.5544 1.02868C12.066 1.53101 11.7917 2.21231 11.7917 2.92271V4.52985H5.54167C5.2654 4.52985 5.00045 4.64274 4.8051 4.84367C4.60975 5.0446 4.5 5.31712 4.5 5.60128C4.5 5.88544 4.60975 6.15797 4.8051 6.3589C5.00045 6.55983 5.2654 6.67271 5.54167 6.67271H6.64844L7.88542 27.0915C7.97786 28.8895 9.31771 30.2441 11.0104 30.2441H22.9896C24.6908 30.2441 26.0039 28.9196 26.1146 27.0968L27.3516 6.67271H28.4583C28.7346 6.67271 28.9996 6.55983 29.1949 6.3589C29.3903 6.15797 29.5 5.88544 29.5 5.60128C29.5 5.31712 29.3903 5.0446 29.1949 4.84367C28.9996 4.64274 28.7346 4.52985 28.4583 4.52985ZM12.8704 25.9584H12.8333C12.5634 25.9586 12.3039 25.851 12.1096 25.6582C11.9153 25.4655 11.8013 25.2027 11.7917 24.9252L11.2708 9.92517C11.261 9.64101 11.3613 9.36446 11.5497 9.15637C11.7381 8.94828 11.9991 8.82569 12.2754 8.81557C12.5517 8.80545 12.8205 8.90862 13.0228 9.10239C13.2251 9.29617 13.3443 9.56467 13.3542 9.84883L13.875 24.8488C13.88 24.9896 13.8579 25.1299 13.8101 25.2619C13.7623 25.3938 13.6896 25.5148 13.5963 25.6178C13.503 25.7209 13.3909 25.804 13.2664 25.8624C13.1418 25.9209 13.0073 25.9535 12.8704 25.9584ZM18.0417 24.887C18.0417 25.1712 17.9319 25.4437 17.7366 25.6446C17.5412 25.8455 17.2763 25.9584 17 25.9584C16.7237 25.9584 16.4588 25.8455 16.2634 25.6446C16.0681 25.4437 15.9583 25.1712 15.9583 24.887V9.887C15.9583 9.60284 16.0681 9.33031 16.2634 9.12938C16.4588 8.92845 16.7237 8.81557 17 8.81557C17.2763 8.81557 17.5412 8.92845 17.7366 9.12938C17.9319 9.33031 18.0417 9.60284 18.0417 9.887V24.887ZM20.125 4.52985H13.875V2.92271C13.8742 2.85214 13.8871 2.78211 13.913 2.71675C13.9389 2.65139 13.9773 2.59201 14.0258 2.5421C14.0743 2.4922 14.132 2.45277 14.1956 2.42613C14.2591 2.3995 14.3272 2.38619 14.3958 2.387H19.6042C19.6728 2.38619 19.7409 2.3995 19.8044 2.42613C19.868 2.45277 19.9257 2.4922 19.9742 2.5421C20.0227 2.59201 20.0611 2.65139 20.087 2.71675C20.1129 2.78211 20.1258 2.85214 20.125 2.92271V4.52985ZM22.2083 24.9252C22.1987 25.2027 22.0847 25.4655 21.8904 25.6582C21.6961 25.851 21.4366 25.9586 21.1667 25.9584H21.1289C20.9921 25.9534 20.8577 25.9207 20.7332 25.8623C20.6087 25.8038 20.4967 25.7206 20.4034 25.6176C20.3102 25.5145 20.2376 25.3936 20.1898 25.2617C20.1421 25.1298 20.12 24.9895 20.125 24.8488L20.6458 9.84883C20.6507 9.70813 20.6825 9.56979 20.7393 9.44172C20.7962 9.31364 20.877 9.19834 20.9772 9.10239C21.0773 9.00645 21.1949 8.93173 21.3232 8.88252C21.4514 8.83331 21.5878 8.81056 21.7246 8.81557C21.8614 8.82058 21.9959 8.85326 22.1204 8.91173C22.2449 8.97021 22.357 9.05334 22.4503 9.15637C22.5436 9.25941 22.6162 9.38033 22.6641 9.51224C22.7119 9.64415 22.734 9.78447 22.7292 9.92517L22.2083 24.9252Z" fill="#99A4AF" fill-opacity="0.5"/>
</g>
<defs>
<filter id="filter0_d" x="0.5" y="0.244141" width="33" height="38" filterUnits="userSpaceOnUse" color-interpolation-filters="sRGB">
<feFlood flood-opacity="0" result="BackgroundImageFix"/>
<feColorMatrix in="SourceAlpha" type="matrix" values="0 0 0 0 0 0 0 0 0 0 0 0 0 0 0 0 0 0 127 0"/>
<feOffset dy="4"/>
<feGaussianBlur stdDeviation="2"/>
<feColorMatrix type="matrix" values="0 0 0 0 0 0 0 0 0 0 0 0 0 0 0 0 0 0 0.25 0"/>
<feBlend mode="normal" in2="BackgroundImageFix" result="effect1_dropShadow"/>
<feBlend mode="normal" in="SourceGraphic" in2="effect1_dropShadow" result="shape"/>
</filter>
</defs>
</svg>
