<svg width="30" height="30" viewBox="0 0 30 30" fill="none" xmlns="http://www.w3.org/2000/svg">
<path fill-rule="evenodd" clip-rule="evenodd" d="M25.047 0.536165V8.71316C25.047 9.00911 24.8055 9.24932 24.5069 9.24926C24.2087 9.24926 23.9668 9.00911 23.9668 8.7131V0.536165C23.9668 0.240214 24.2087 0 24.5069 0C24.805 0 25.047 0.240214 25.047 0.536165ZM25.8623 12.0637C25.8623 12.3596 26.1042 12.5998 26.4024 12.5998C26.7005 12.5998 26.9425 12.3596 26.9425 12.0637V3.88724C26.9425 3.59129 26.7005 3.35107 26.4024 3.35107C26.1042 3.35107 25.8623 3.59129 25.8623 3.88724V12.0637ZM27.6637 16.4226C27.9067 15.7744 28.6321 15.444 29.2862 15.6842C29.9397 15.925 30.2724 16.6467 30.0294 17.296L27.9786 22.7775C27.79 23.2799 27.3099 23.5942 26.7957 23.5942C26.6699 23.5942 26.543 23.5753 26.4171 23.5362L22.5548 22.3325L16.8459 26.7469L16.8402 26.7524L16.8318 26.7612L16.8237 26.7698C16.8207 26.7728 16.8175 26.7758 16.8141 26.7786L13.3137 29.5829C12.9664 29.8612 12.5456 30 12.1243 30C11.7063 30 11.2872 29.8628 10.9415 29.5877L7.68949 27.0033L7.29576 27.1185C7.11914 27.1706 6.93925 27.1952 6.76156 27.1952C6.19663 27.1952 5.65 26.9443 5.2849 26.4928L0.525467 20.6058C-0.128591 19.7962 0.00159895 18.6134 0.817138 17.9635C1.63211 17.3148 2.82416 17.4435 3.47822 18.2531L7.44368 23.1581L7.53439 23.1314L7.53504 23.1313L7.53828 23.1306C7.5397 23.1302 7.54111 23.1298 7.54253 23.1292L10.3267 22.3164L14.6546 19.8691L12.8512 19.3072C12.5012 19.1984 12.2166 18.9432 12.0708 18.6091C11.9255 18.2746 11.9335 17.8938 12.0934 17.5662L14.4597 12.7115C14.7632 12.089 15.5188 11.8284 16.1454 12.1298C16.773 12.4311 17.0355 13.1802 16.7319 13.8032L15.0025 17.3518L26.0304 20.7882L27.6637 16.4226ZM24.622 15.4244C24.622 17.0241 23.3157 18.3209 21.7043 18.3209C20.0929 18.3209 18.7866 17.0241 18.7866 15.4244C18.7866 13.8247 20.0929 12.5278 21.7043 12.5278C23.3157 12.5278 24.622 13.8247 24.622 15.4244ZM6.51416 10.1153V18.2916C6.51416 18.5882 6.75613 18.8278 7.05424 18.8278C7.35235 18.8278 7.59432 18.5882 7.59432 18.2916V10.1153C7.59432 9.81926 7.35235 9.5791 7.05424 9.5791C6.75607 9.57905 6.51416 9.81926 6.51416 10.1153ZM8.41016 14.9411V6.76419C8.41016 6.46824 8.65212 6.22803 8.95023 6.22803C9.24834 6.22803 9.49031 6.46818 9.49031 6.76419V14.9411C9.49031 15.2371 9.2484 15.4773 8.95023 15.4773C8.65212 15.4773 8.41016 15.2371 8.41016 14.9411Z" fill="#142C60"/>
</svg>
