<svg width="16" height="30" viewBox="0 0 16 30" fill="none" xmlns="http://www.w3.org/2000/svg">
<path fill-rule="evenodd" clip-rule="evenodd" d="M10.5888 2.46444C10.5888 3.82551 9.42955 4.92887 7.9995 4.92887C6.56944 4.92887 5.41016 3.82551 5.41016 2.46444C5.41016 1.10337 6.56944 0 7.9995 0C9.42955 0 10.5888 1.10337 10.5888 2.46444ZM11.3491 6.43196C11.3491 6.43196 15.2588 7.98945 15.989 15.7977C16.1951 17.4716 13.4451 17.4514 13.2389 15.7966C12.989 13.7719 12.6263 11.7376 11.5281 10.0249C11.5281 10.4962 11.5272 11.147 11.5262 11.8822L11.5257 12.2183L11.4093 21.3558V28.6243C11.4093 30.3111 8.66107 30.3111 8.66107 28.6243V18.2498H7.3153V28.5911C7.3153 29.3687 6.63296 30.0001 5.79229 30.0001C4.95104 30.0001 4.352 29.3687 4.352 28.5911V21.3563L4.3709 12.2368L4.37563 10.3392C3.35065 12.0209 3.00327 13.9956 2.75988 15.9613C2.55547 17.615 -0.19515 17.6352 0.011028 15.9613C0.418659 12.6675 1.01415 9.25737 3.59286 7.02347C7.57051 4.27002 11.3491 6.43196 11.3491 6.43196Z" fill="#142C60"/>
</svg>
