<svg width="64" height="64" viewBox="0 0 64 64" fill="none" xmlns="http://www.w3.org/2000/svg">
<g clip-path="url(#clip0)">
<path d="M52.6999 30.1C52.7999 29.5 52.7999 29 52.7999 28.4C52.8999 20.7 53.0999 13.6 53.0999 13.6C53.0999 13.6 40.8999 13.2 40.8999 2.3C40.8999 2.3 32.3999 1.5 27.2999 1.5C22.1999 1.5 13.6999 2.3 13.6999 2.3C13.6999 13.2 1.3999 13.6 1.3999 13.6C1.3999 13.6 1.5999 20.7 1.6999 28.4C3.1999 55.5 27.1999 62.5 27.1999 62.5C27.1999 62.5 29.0999 62 31.7999 60.6" stroke="#142C60" stroke-width="3" stroke-miterlimit="10"/>
<path d="M47.9999 62.4C55.511 62.4 61.5999 56.3111 61.5999 48.8C61.5999 41.2889 55.511 35.2 47.9999 35.2C40.4888 35.2 34.3999 41.2889 34.3999 48.8C34.3999 56.3111 40.4888 62.4 47.9999 62.4Z" stroke="#142C60" stroke-width="3" stroke-miterlimit="10"/>
<path d="M44.8001 30.1C44.8001 29.9 44.8001 29.7 44.8001 29.5C44.9001 24.2 45.0001 19.4 45.0001 19.4C45.0001 19.4 36.6001 19.1 36.6001 11.6C36.6001 11.6 30.8001 11 27.3001 11C23.8001 11 18.0001 11.6 18.0001 11.6C18.0001 19.1 9.6001 19.4 9.6001 19.4C9.6001 19.4 9.8001 24.3 9.8001 29.5C10.9001 48.1 27.3001 52.9 27.3001 52.9C27.3001 52.9 28.2001 52.6 29.5001 52" stroke="#E72D2D" stroke-width="2" stroke-miterlimit="10"/>
<path d="M43.2002 48.2L47.1002 52.1L53.8002 45.5" stroke="#E72D2D" stroke-width="2" stroke-miterlimit="10"/>
</g>
<defs>
<clipPath id="clip0">
<rect width="63.2" height="64" fill="white"/>
</clipPath>
</defs>
</svg>
