<svg width="24" height="24" viewBox="0 0 24 24" fill="none" xmlns="http://www.w3.org/2000/svg">
<path d="M19.067 6.30819L18.8326 6.46041C18.9126 6.50376 18.9894 6.5535 19.0623 6.60935L19.283 6.466C19.2143 6.40834 19.1421 6.35567 19.067 6.30819ZM4.1674 6.46039L3.93302 6.30819C3.85742 6.35601 3.78526 6.40876 3.717 6.466L3.93776 6.60935C4.01005 6.55396 4.08681 6.50409 4.1674 6.46039ZM11.6362 11.3103L11.5 11.2219L11.3638 11.3103L11.5 11.52L11.6362 11.3103ZM11.3639 12.9217L11.5 13.0101L11.6361 12.9217L19.7197 7.6731C19.7396 7.77871 19.75 7.888 19.75 8V17C19.75 17.4641 19.5656 17.9092 19.2374 18.2374C18.9092 18.5656 18.4641 18.75 18 18.75H5C4.53587 18.75 4.09075 18.5656 3.76256 18.2374C3.43437 17.9092 3.25 17.4641 3.25 17V8V7.99985C3.24994 7.89004 3.26024 7.78071 3.28063 7.67328L11.3639 12.9217ZM18 4.75H5C4.13805 4.75 3.3114 5.09241 2.7019 5.7019C2.09241 6.3114 1.75 7.13805 1.75 8V17C1.75 17.862 2.09241 18.6886 2.7019 19.2981C3.3114 19.9076 4.13805 20.25 5 20.25H18C18.862 20.25 19.6886 19.9076 20.2981 19.2981C20.9076 18.6886 21.25 17.862 21.25 17V8C21.25 7.13805 20.9076 6.3114 20.2981 5.7019C19.6886 5.09241 18.862 4.75 18 4.75Z" fill="#E72D2D" stroke="#E72D2D" stroke-width="0.5"/>
</svg>
