<svg width="17" height="17" viewBox="0 0 17 17" fill="none" xmlns="http://www.w3.org/2000/svg">
<path d="M0.497918 0.497918C0.81673 0.179107 1.24913 0 1.7 0H11.05C11.5009 0 11.9333 0.179107 12.2521 0.497918C12.5709 0.81673 12.75 1.24913 12.75 1.7V7.65C12.75 8.10087 12.5709 8.53327 12.2521 8.85208C11.9333 9.17089 11.5009 9.35 11.05 9.35H3.4L0 12.75V1.7C0 1.24913 0.179107 0.81673 0.497918 0.497918Z" fill="#999EA7"/>
<path d="M14.45 5.1V3.4H15.3C15.7509 3.4 16.1833 3.57911 16.5021 3.89792C16.8209 4.21673 17 4.64913 17 5.1V17L13.6 13.6H5.1C4.64913 13.6 4.21673 13.4209 3.89792 13.1021C3.57911 12.7833 3.4 12.3509 3.4 11.9V11.05H5.1V11.9H13.6L15.3 13.6V5.1H14.45Z" fill="#999EA7"/>
</svg>
