<svg width="60" height="76" viewBox="0 0 60 76" fill="none" xmlns="http://www.w3.org/2000/svg">
<path d="M0 0H60V60H0V0Z" fill="#E72D2D"/>
<path d="M9 24.5278C23.4444 31.9112 26.5051 39.2065 28.9967 40.4833C31.8991 42.4021 37.1338 42.7637 39.3549 41.2829C41.258 40.6002 44.6425 37.4331 46.6294 33.513C35.9858 41.6285 30.6195 29.2086 50.6213 15C41.784 19.0993 31.8054 27.6457 27.528 32.2746C25.8422 31.9968 17.1698 27.2901 9 24.5278Z" fill="white"/>
<path d="M29.6586 26.2879C29.6586 28.3414 27.8838 30.003 25.6954 30.003C23.507 30.003 21.7349 28.3414 21.7349 26.2879C21.7349 24.2344 23.5097 22.5754 25.6954 22.5754C27.8812 22.5754 29.6586 24.2422 29.6586 26.2879Z" fill="white"/>
<path d="M44 60H60V76L44 60Z" fill="#E72D2D"/>
</svg>
