<svg width="30" height="31" viewBox="0 0 30 31" fill="none" xmlns="http://www.w3.org/2000/svg">
<path fill-rule="evenodd" clip-rule="evenodd" d="M16.3111 0.0273438C16.4 0.0273438 16.4889 0.0273438 16.5778 0.0273438C16.5333 0.19612 16.5333 0.322702 16.4889 0.491479C16.2667 0.997808 16.4444 1.37755 16.9333 1.58853C17.1556 1.67291 17.3778 1.7573 17.6 1.84169C18.2222 2.01047 18.8889 2.13705 19.5111 2.39021C20.9333 2.89654 21.8222 3.82481 21.9556 5.30161C22.0444 5.97671 22 6.65182 22 7.32692C22 8.25519 22 9.18346 22 10.1117C22 10.3649 22.0444 10.5759 22.3111 10.7024C22.4889 10.7868 22.5778 10.9978 22.5333 11.1666C22.3556 12.137 22.1333 13.1075 21.9111 14.078C21.8667 14.3733 19.2889 18.002 19.3333 18.213C19.3778 18.8037 19.7333 19.31 19.8222 19.9008C19.8667 20.1117 20.6667 20.2805 20.8889 20.3649C21.1556 20.4915 21.3333 20.7024 21.4222 20.9556C21.5556 21.2932 21.6444 21.6729 21.7778 22.0105C21.8222 22.137 21.9556 22.2636 22.0889 22.348C23.0222 22.8543 24 23.3185 24.9333 23.7826C26.4444 24.5421 27.9556 25.3016 29.4667 26.0611C29.8667 26.2299 30 26.483 30 26.905C30 27.6645 30 28.4662 30 29.2257C30 29.5632 29.9111 29.8586 29.5556 30.0273C24.1333 30.0273 18.7111 30.0273 13.2444 30.0273C8.97778 30.0273 4.71111 30.0273 0.444444 30.0273C0.0888889 29.8586 0 29.5632 0 29.2257C0 28.424 0 27.6645 0 26.8628C0 26.483 0.133333 26.2299 0.488889 26.0611C1.6 25.5126 2.71111 24.9641 3.86667 24.3733C5.2 23.6982 6.57778 23.0231 7.91111 22.348C8.04444 22.3058 8.13333 22.137 8.22222 22.0105C8.35556 21.6729 8.44444 21.2932 8.62222 20.9134C8.71111 20.7024 9.55556 20.4915 9.77778 20.3649C10 20.1961 10.4 20.0695 10.4444 19.8164C10.4889 19.31 10.8444 18.9303 10.9333 18.424C11.0222 18.002 8.44444 15.0484 8.31111 14.5843C8.13333 14.0358 7.95556 13.4451 7.82222 12.8965C7.68889 12.348 7.6 11.7573 7.51111 11.1666C7.46667 10.9556 7.46667 10.7446 7.68889 10.6603C8 10.5337 8.04445 10.2805 8.04445 9.98515C8.04445 8.50836 8.04445 7.07376 8.04445 5.59696C8.04445 5.21722 8.13333 4.83747 8.26667 4.45772C8.62222 3.48726 9.33333 2.81215 10.3111 2.43241C11.6444 1.84169 12.9778 1.33536 14.3111 0.786837C14.8889 0.533673 15.6 0.280508 16.3111 0.0273438Z" fill="white"/>
</svg>
