<svg width="28" height="28" viewBox="0 0 28 28" fill="none" xmlns="http://www.w3.org/2000/svg">
<path d="M17.1836 4.93896H10.4568C7.36131 4.93896 4.85107 7.4492 4.85107 10.5447V17.2715C4.85107 20.367 7.36131 22.8773 10.4568 22.8773H17.1836C20.2791 22.8773 22.7894 20.367 22.7894 17.2715V10.5447C22.7894 7.4492 20.2791 4.93896 17.1836 4.93896ZM21.1076 17.2715C21.1076 19.4353 19.3475 21.1955 17.1836 21.1955H10.4568C8.29298 21.1955 6.53279 19.4353 6.53279 17.2715V10.5447C6.53279 8.38087 8.29298 6.62068 10.4568 6.62068H17.1836C19.3475 6.62068 21.1076 8.38087 21.1076 10.5447V17.2715Z" fill="white"/>
<path d="M13.82 9.42358C11.3434 9.42358 9.33545 11.4316 9.33545 13.9082C9.33545 16.3848 11.3434 18.3927 13.82 18.3927C16.2966 18.3927 18.3046 16.3848 18.3046 13.9082C18.3046 11.4316 16.2966 9.42358 13.82 9.42358ZM13.82 16.711C12.2751 16.711 11.0172 15.4531 11.0172 13.9082C11.0172 12.3621 12.2751 11.1053 13.82 11.1053C15.365 11.1053 16.6229 12.3621 16.6229 13.9082C16.6229 15.4531 15.365 16.711 13.82 16.711Z" fill="white"/>
<path d="M18.641 9.68488C18.9711 9.68488 19.2386 9.41734 19.2386 9.08732C19.2386 8.75729 18.9711 8.48975 18.641 8.48975C18.311 8.48975 18.0435 8.75729 18.0435 9.08732C18.0435 9.41734 18.311 9.68488 18.641 9.68488Z" fill="white"/>
</svg>
