<svg width="28" height="28" viewBox="0 0 28 28" fill="none" xmlns="http://www.w3.org/2000/svg">
<path d="M17.546 4.9386H10.8191C7.72362 4.9386 5.21338 7.44884 5.21338 10.5443V17.2712C5.21338 20.3666 7.72362 22.8769 10.8191 22.8769H17.546C20.6414 22.8769 23.1517 20.3666 23.1517 17.2712V10.5443C23.1517 7.44884 20.6414 4.9386 17.546 4.9386ZM21.47 17.2712C21.47 19.435 19.7098 21.1952 17.546 21.1952H10.8191C8.65529 21.1952 6.89509 19.435 6.89509 17.2712V10.5443C6.89509 8.38051 8.65529 6.62031 10.8191 6.62031H17.546C19.7098 6.62031 21.47 8.38051 21.47 10.5443V17.2712Z" fill="#999EA7"/>
<path d="M14.1823 9.42316C11.7057 9.42316 9.69775 11.4311 9.69775 13.9077C9.69775 16.3843 11.7057 18.3923 14.1823 18.3923C16.6589 18.3923 18.6669 16.3843 18.6669 13.9077C18.6669 11.4311 16.6589 9.42316 14.1823 9.42316ZM14.1823 16.7106C12.6374 16.7106 11.3795 15.4527 11.3795 13.9077C11.3795 12.3617 12.6374 11.1049 14.1823 11.1049C15.7273 11.1049 16.9852 12.3617 16.9852 13.9077C16.9852 15.4527 15.7273 16.7106 14.1823 16.7106Z" fill="#999EA7"/>
<path d="M19.0033 9.68464C19.3334 9.68464 19.6009 9.4171 19.6009 9.08707C19.6009 8.75704 19.3334 8.4895 19.0033 8.4895C18.6733 8.4895 18.4058 8.75704 18.4058 9.08707C18.4058 9.4171 18.6733 9.68464 19.0033 9.68464Z" fill="#999EA7"/>
</svg>
