<svg width="33" height="32" viewBox="0 0 33 32" fill="none" xmlns="http://www.w3.org/2000/svg">
<path d="M27.004 6H21.004V4.5C21.004 3.83696 20.7406 3.20107 20.2718 2.73223C19.803 2.26339 19.1671 2 18.504 2H13.504C12.841 2 12.2051 2.26339 11.7363 2.73223C11.2674 3.20107 11.004 3.83696 11.004 4.5V6H5.00403C4.73881 6 4.48446 6.10536 4.29692 6.29289C4.10939 6.48043 4.00403 6.73478 4.00403 7C4.00403 7.26522 4.10939 7.51957 4.29692 7.70711C4.48446 7.89464 4.73881 8 5.00403 8H6.06653L7.25403 27.0575C7.34278 28.7356 8.62903 30 10.254 30H21.754C23.3872 30 24.6478 28.7638 24.754 27.0625L25.9415 8H27.004C27.2692 8 27.5236 7.89464 27.7111 7.70711C27.8987 7.51957 28.004 7.26522 28.004 7C28.004 6.73478 27.8987 6.48043 27.7111 6.29289C27.5236 6.10536 27.2692 6 27.004 6ZM12.0397 26H12.004C11.7449 26.0002 11.4958 25.8997 11.3092 25.7198C11.1227 25.5399 11.0133 25.2946 11.004 25.0356L10.504 11.0356C10.4946 10.7704 10.5909 10.5123 10.7717 10.3181C10.9526 10.1239 11.2032 10.0094 11.4684 10C11.7336 9.99055 11.9917 10.0868 12.1859 10.2677C12.3802 10.4486 12.4946 10.6992 12.504 10.9644L13.004 24.9644C13.0088 25.0957 12.9876 25.2267 12.9417 25.3499C12.8958 25.473 12.8261 25.5859 12.7365 25.6821C12.647 25.7783 12.5393 25.8559 12.4197 25.9104C12.3002 25.965 12.171 25.9954 12.0397 26ZM17.004 25C17.004 25.2652 16.8987 25.5196 16.7111 25.7071C16.5236 25.8946 16.2692 26 16.004 26C15.7388 26 15.4845 25.8946 15.2969 25.7071C15.1094 25.5196 15.004 25.2652 15.004 25V11C15.004 10.7348 15.1094 10.4804 15.2969 10.2929C15.4845 10.1054 15.7388 10 16.004 10C16.2692 10 16.5236 10.1054 16.7111 10.2929C16.8987 10.4804 17.004 10.7348 17.004 11V25ZM19.004 6H13.004V4.5C13.0033 4.43413 13.0157 4.36877 13.0406 4.30777C13.0654 4.24677 13.1022 4.19135 13.1488 4.14477C13.1954 4.09819 13.2508 4.06139 13.3118 4.03652C13.3728 4.01166 13.4382 3.99925 13.504 4H18.504C18.5699 3.99925 18.6353 4.01166 18.6963 4.03652C18.7573 4.06139 18.8127 4.09819 18.8593 4.14477C18.9058 4.19135 18.9426 4.24677 18.9675 4.30777C18.9924 4.36877 19.0048 4.43413 19.004 4.5V6ZM21.004 25.0356C20.9948 25.2946 20.8854 25.5399 20.6988 25.7198C20.5123 25.8997 20.2632 26.0002 20.004 26H19.9678C19.8365 25.9953 19.7074 25.9648 19.5879 25.9102C19.4684 25.8557 19.3608 25.7781 19.2713 25.6819C19.1818 25.5857 19.1121 25.4728 19.0663 25.3497C19.0204 25.2266 18.9993 25.0957 19.004 24.9644L19.504 10.9644C19.5087 10.8331 19.5392 10.7039 19.5938 10.5844C19.6484 10.4649 19.7259 10.3573 19.8221 10.2677C19.9183 10.1782 20.0311 10.1084 20.1543 10.0625C20.2774 10.0166 20.4083 9.99532 20.5397 10C20.671 10.0047 20.8001 10.0352 20.9196 10.0898C21.0392 10.1443 21.1468 10.2219 21.2363 10.3181C21.3259 10.4143 21.3956 10.5271 21.4415 10.6502C21.4875 10.7733 21.5087 10.9043 21.504 11.0356L21.004 25.0356Z" fill="#E72D2D"/>
</svg>
