<svg width="178" height="38" viewBox="0 0 178 38" fill="none" xmlns="http://www.w3.org/2000/svg">
<rect width="178" height="38" fill="white"/>
<path d="M0 13.6258C20.6571 24.1848 25.4227 34.5916 28.6721 35.9022C31.9216 37.2128 40.7639 38.0222 43.4855 37.0457C46.2071 36.0693 50.9727 32.0818 53.814 26.4756C38.5926 38.0816 30.9183 20.3198 59.523 0C46.8847 5.86242 32.6141 18.0848 26.4971 24.7046C24.0862 24.3073 11.6837 17.5761 0 13.6258Z" fill="#E72D2D"/>
<path d="M29.5444 16.143C29.5444 19.0797 27.0062 21.4559 23.8766 21.4559C20.7469 21.4559 18.2125 19.0797 18.2125 16.143C18.2125 13.2062 20.7507 10.8337 23.8766 10.8337C27.0025 10.8337 29.5444 13.2173 29.5444 16.143Z" fill="#E72D2D"/>
<path d="M173.279 30.2109C173.279 34.009 169.607 37.0868 165.073 37.0868H141.534V30.2109H162.846C164.078 30.2109 165.092 29.3718 165.092 28.3545V25.3212H149.743C145.21 25.3212 141.534 22.247 141.534 18.4452V5.95923H149.743V16.5814C149.743 17.6061 150.739 18.4377 151.971 18.4377H165.073V5.95923H173.279V30.2109Z" fill="#142C60"/>
<path d="M105.771 30.2071C105.771 34.0053 109.447 37.0831 113.981 37.0831H137.517V30.2071H116.216C114.98 30.2071 113.97 29.3718 113.97 28.3508V5.95923H105.771V30.2071Z" fill="#142C60"/>
<path d="M70.005 37.0831H78.2409V25.3212H101.773V18.4452H78.2409V14.699C78.2409 13.6706 79.2367 12.8427 80.4646 12.8427H101.773V5.95923H78.2409C73.7037 5.95923 70.0312 9.03709 70.0312 12.8352L70.005 37.0831Z" fill="#142C60"/>
<path d="M65.9957 18.4448H57.786V37.0828H65.9957V18.4448Z" fill="#142C60"/>
<path d="M65.9957 5.95923H57.786V14.1013H65.9957V5.95923Z" fill="#142C60"/>
<path d="M176.102 5.80672C176.486 5.81695 176.858 5.93922 177.172 6.15822C177.486 6.37722 177.727 6.68321 177.867 7.03786C178.006 7.39252 178.037 7.78009 177.955 8.15201C177.874 8.52394 177.683 8.8637 177.408 9.12875C177.132 9.39379 176.784 9.57233 176.407 9.64201C176.029 9.71169 175.64 9.66941 175.286 9.52047C174.933 9.37153 174.632 9.12255 174.421 8.8047C174.21 8.48686 174.098 8.11428 174.099 7.73363C174.097 7.47507 174.149 7.21884 174.249 6.98038C174.35 6.74192 174.499 6.52617 174.686 6.34613C174.873 6.16609 175.095 6.02548 175.338 5.93278C175.582 5.84007 175.841 5.79719 176.102 5.80672ZM176.102 9.25957C176.3 9.25572 176.495 9.21311 176.675 9.13419C176.856 9.05527 177.02 8.9416 177.156 8.79975C177.293 8.65789 177.399 8.49065 177.47 8.30767C177.541 8.12469 177.575 7.92959 177.569 7.73363C177.58 7.53608 177.549 7.33855 177.48 7.15307C177.41 6.96759 177.304 6.79802 177.166 6.65466C177.029 6.51131 176.864 6.39716 176.68 6.31916C176.497 6.24117 176.3 6.20095 176.1 6.20095C175.901 6.20095 175.703 6.24117 175.52 6.31916C175.337 6.39716 175.171 6.51131 175.034 6.65466C174.896 6.79802 174.79 6.96759 174.721 7.15307C174.651 7.33855 174.621 7.53608 174.631 7.73363C174.622 7.93067 174.654 8.12738 174.724 8.31196C174.794 8.49654 174.901 8.66517 175.038 8.80771C175.176 8.95025 175.341 9.06376 175.524 9.14141C175.706 9.21906 175.903 9.25925 176.102 9.25957ZM175.323 6.66065H176.147C176.693 6.66065 177 6.83144 177 7.30296C177.006 7.37928 176.995 7.45588 176.968 7.52765C176.941 7.59942 176.9 7.66471 176.845 7.71917C176.791 7.77362 176.726 7.816 176.654 7.84346C176.582 7.87092 176.505 7.88284 176.428 7.87843L177.012 8.82518H176.559L176.027 7.90071H175.758V8.82518H175.323V6.66065ZM175.758 7.56285H176.132C176.379 7.56285 176.559 7.52943 176.559 7.26583C176.559 7.00222 176.308 6.9948 176.109 6.9948H175.735L175.758 7.56285Z" fill="#142C60"/>
</svg>
