<svg width="25" height="26" viewBox="0 0 25 26" fill="none" xmlns="http://www.w3.org/2000/svg">
<path fill-rule="evenodd" clip-rule="evenodd" d="M12.4957 0.5C19.3982 0.5 25 6.1018 25 13.0043C25 19.8982 19.3982 25.5 12.4957 25.5C5.59313 25.5 0 19.8982 0 13.0043C0 6.1018 5.59313 0.5 12.4957 0.5Z" fill="#E72D2D"/>
<path d="M17.5 8H7.5C6.8125 8 6.25625 8.5625 6.25625 9.25L6.25 16.75C6.25 17.4375 6.8125 18 7.5 18H17.5C18.1875 18 18.75 17.4375 18.75 16.75V9.25C18.75 8.5625 18.1875 8 17.5 8ZM17.5 10.5L12.5 13.625L7.5 10.5V9.25L12.5 12.375L17.5 9.25V10.5Z" fill="white"/>
</svg>
