<svg width="8" height="16" viewBox="0 0 8 16" fill="none" xmlns="http://www.w3.org/2000/svg">
<path d="M3.99975 3.16756C4.71477 3.16756 5.29442 2.61588 5.29442 1.93534C5.29442 1.25481 4.71477 0.703125 3.99975 0.703125C3.28472 0.703125 2.70508 1.25481 2.70508 1.93534C2.70508 2.61588 3.28472 3.16756 3.99975 3.16756Z" fill="white"/>
<path d="M7.99448 8.60198C7.62939 4.69785 5.67453 3.9191 5.67453 3.9191C5.67453 3.9191 3.78525 2.83814 1.79643 4.21486C0.507077 5.33181 0.209329 7.0369 0.00551401 8.68379C-0.0975752 9.52073 1.27774 9.51061 1.37994 8.68379C1.50164 7.70094 1.67532 6.71359 2.18781 5.87272L2.18545 6.82155L2.176 11.3813V14.9987C2.176 15.3875 2.47552 15.7032 2.89615 15.7032C3.31648 15.7032 3.65765 15.3875 3.65765 14.9987V9.82802H4.33053C4.33053 11.0394 4.33053 13.8044 4.33053 15.0153C4.33053 15.8587 5.70466 15.8587 5.70466 15.0153C5.70466 13.8038 5.70466 12.5921 5.70466 11.381L5.76285 6.81227C5.76345 6.37623 5.76404 5.98658 5.76404 5.71556C6.31316 6.5719 6.49452 7.58905 6.61947 8.60142C6.72256 9.4288 8.09757 9.43892 7.99448 8.60198Z" fill="white"/>
</svg>
