<svg width="16" height="30" viewBox="0 0 16 30" fill="none" xmlns="http://www.w3.org/2000/svg">
<path d="M8.2859 4.92887C9.62658 4.92887 10.7134 3.82551 10.7134 2.46444C10.7134 1.10337 9.62658 0 8.2859 0C6.94523 0 5.8584 1.10337 5.8584 2.46444C5.8584 3.82551 6.94523 4.92887 8.2859 4.92887Z" fill="white"/>
<path d="M15.7758 15.7977C15.0912 7.98945 11.4259 6.43196 11.4259 6.43196C11.4259 6.43196 7.88349 4.27002 4.15444 7.02347C1.7369 9.25737 1.17863 12.6675 0.796472 15.9613C0.603179 17.6352 3.18189 17.615 3.37352 15.9613C3.6017 13.9956 3.92736 12.0209 4.88829 10.3392L4.88386 12.2368L4.86613 21.3563V28.5911C4.86613 29.3687 5.42773 30.0001 6.21641 30.0001C7.00453 30.0001 7.64422 29.3687 7.64422 28.5911V18.2498H8.90589C8.90589 20.6726 8.90589 26.2026 8.90589 28.6243C8.90589 30.3111 11.4824 30.3111 11.4824 28.6243C11.4824 26.2014 11.4824 23.778 11.4824 21.3558L11.5915 12.2183C11.5926 11.3462 11.5937 10.5669 11.5937 10.0249C12.6233 11.7376 12.9634 13.7719 13.1976 15.7966C13.3909 17.4514 15.9691 17.4716 15.7758 15.7977Z" fill="white"/>
</svg>
