<svg width="25" height="26" viewBox="0 0 25 26" fill="none" xmlns="http://www.w3.org/2000/svg">
<path fill-rule="evenodd" clip-rule="evenodd" d="M12.4957 0.5C19.3982 0.5 25 6.1018 25 13.0043C25 19.8982 19.3982 25.5 12.4957 25.5C5.59313 25.5 0 19.8982 0 13.0043C0 6.1018 5.59313 0.5 12.4957 0.5Z" fill="#E72D2D"/>
<path d="M17.5 10.8569C17.5 10.2003 17.3707 9.55014 17.1194 8.94352C16.8681 8.33689 16.4998 7.78569 16.0355 7.3214C15.5712 6.85711 15.02 6.48881 14.4134 6.23754C13.8068 5.98626 13.1566 5.85693 12.5 5.85693C11.8434 5.85693 11.1932 5.98626 10.5866 6.23754C9.97995 6.48881 9.42876 6.85711 8.96447 7.3214C8.50017 7.78569 8.13188 8.33689 7.8806 8.94352C7.62933 9.55014 7.5 10.2003 7.5 10.8569C7.5 11.8476 7.79286 12.7691 8.28929 13.5462H8.28357C9.96929 16.1855 12.5 20.1426 12.5 20.1426L16.7164 13.5462H16.7114C17.226 12.7436 17.4997 11.8103 17.5 10.8569ZM12.5 12.9998C11.9317 12.9998 11.3866 12.774 10.9848 12.3722C10.5829 11.9703 10.3571 11.4253 10.3571 10.8569C10.3571 10.2886 10.5829 9.74357 10.9848 9.3417C11.3866 8.93984 11.9317 8.71408 12.5 8.71408C13.0683 8.71408 13.6134 8.93984 14.0152 9.3417C14.4171 9.74357 14.6429 10.2886 14.6429 10.8569C14.6429 11.4253 14.4171 11.9703 14.0152 12.3722C13.6134 12.774 13.0683 12.9998 12.5 12.9998Z" fill="white"/>
</svg>
