<svg width="12" height="19" viewBox="0 0 12 19" fill="none" xmlns="http://www.w3.org/2000/svg">
<path fill-rule="evenodd" clip-rule="evenodd" d="M6.41315 2.87381C7.53233 2.87381 8.44242 3.78452 8.44242 4.90424C8.44242 6.02282 7.53233 6.93362 6.41315 6.93362C5.29515 6.93362 4.38392 6.02282 4.38392 4.90424C4.38392 3.78452 5.29515 2.87381 6.41315 2.87381ZM6.41315 9.80629C9.11653 9.80629 11.3141 7.6075 11.3141 4.90424C11.3141 2.1997 9.11653 0 6.41315 0C3.71039 0 1.51219 2.1997 1.51219 4.90424C1.51219 7.6075 3.71039 9.80629 6.41315 9.80629ZM8.39602 13.8065C9.39374 13.579 10.356 13.1842 11.242 12.627C11.9127 12.2041 12.1149 11.3172 11.6922 10.6461C11.27 9.97361 10.384 9.77131 9.71217 10.1942C7.7047 11.4574 5.11991 11.4569 3.11357 10.1942C2.44175 9.77131 1.5557 9.97361 1.13416 10.6461C0.711477 11.3176 0.913084 12.2041 1.58377 12.627C2.46981 13.1834 3.43201 13.579 4.42975 13.8065L1.68972 16.5478C1.12959 17.1088 1.12959 18.0182 1.6903 18.5792C1.97094 18.8594 2.33808 18.9998 2.7052 18.9998C3.0729 18.9998 3.4406 18.8594 3.72127 18.5792L6.41259 15.8854L9.10621 18.5792C9.66637 19.1403 10.5753 19.1403 11.136 18.5792C11.6973 18.0182 11.6973 17.1084 11.136 16.5478L8.39602 13.8065Z" fill="#999EA7"/>
</svg>
