<svg width="15" height="16" viewBox="0 0 15 16" fill="none" xmlns="http://www.w3.org/2000/svg">
<path d="M10.8524 9.86333C11.6581 9.86333 12.3112 9.21492 12.3112 8.41506C12.3112 7.61521 11.6581 6.9668 10.8524 6.9668C10.0467 6.9668 9.39355 7.61521 9.39355 8.41506C9.39355 9.21492 10.0467 9.86333 10.8524 9.86333Z" fill="white"/>
<path d="M14.6433 8.545C14.3163 8.42489 13.9536 8.59006 13.8321 8.91418L13.0154 11.097L7.50148 9.3788L8.36621 7.6045C8.51798 7.29299 8.38674 6.91845 8.07293 6.76776C7.75965 6.61709 7.38185 6.74737 7.23008 7.05863L6.04696 9.48598C5.96701 9.64977 5.96297 9.84016 6.03563 10.0075C6.10855 10.1745 6.25086 10.3021 6.42587 10.3565L7.32757 10.6374L5.16361 11.8611L3.77151 12.2675C3.77015 12.268 3.7688 12.2683 3.76744 12.2686L3.72209 12.2819L1.73935 9.82943C1.41232 9.42461 0.816301 9.36027 0.408813 9.68465C0.00104363 10.0096 -0.0640515 10.601 0.262978 11.0058L2.64269 13.9493C2.82524 14.175 3.09856 14.3005 3.38102 14.3005C3.46987 14.3005 3.55981 14.2882 3.64812 14.2621L3.84499 14.2045L5.47099 15.4967C5.64382 15.6343 5.8534 15.7029 6.06241 15.7029C6.27303 15.7029 6.48342 15.6335 6.65707 15.4943L8.40727 14.0922C8.41323 14.0873 8.41752 14.0814 8.4232 14.0764L11.2776 11.8691L13.2088 12.471C13.2718 12.4905 13.3352 12.5 13.3981 12.5C13.6552 12.5 13.8953 12.3428 13.9895 12.0916L15.0149 9.35087C15.1364 9.02622 14.9701 8.66536 14.6433 8.545Z" fill="white"/>
<path d="M12.9316 6.7352C12.9316 6.88318 13.0526 7.00329 13.2017 7.00329C13.3507 7.00329 13.4717 6.88318 13.4717 6.7352V2.64699C13.4717 2.49901 13.3507 2.37891 13.2017 2.37891C13.0526 2.37891 12.9316 2.49901 12.9316 2.64699V6.7352Z" fill="white"/>
<path d="M12.5235 5.0597V0.971207C12.5235 0.823232 12.4025 0.703125 12.2534 0.703125C12.1044 0.703125 11.9834 0.823232 11.9834 0.971207V5.05967C11.9834 5.20768 12.1044 5.32776 12.2534 5.32776C12.4028 5.32779 12.5235 5.20768 12.5235 5.0597Z" fill="white"/>
<path d="M3.25684 5.76125V9.84943C3.25684 9.99771 3.37782 10.1175 3.52687 10.1175C3.67593 10.1175 3.79691 9.99771 3.79691 9.84943V5.76125C3.79691 5.61324 3.67593 5.49316 3.52687 5.49316C3.37779 5.49314 3.25684 5.61324 3.25684 5.76125Z" fill="white"/>
<path d="M4.20508 4.08546V8.17393C4.20508 8.32193 4.32606 8.44201 4.47512 8.44201C4.6242 8.44201 4.74516 8.32193 4.74516 8.17393V4.08546C4.74516 3.93746 4.62417 3.81738 4.47512 3.81738C4.32606 3.81738 4.20508 3.93749 4.20508 4.08546Z" fill="white"/>
</svg>
