<svg width="31" height="30" viewBox="0 0 31 30" fill="none" xmlns="http://www.w3.org/2000/svg">
<g clip-path="url(#clip0)">
<path d="M22.4899 18.3214C24.1013 18.3214 25.4076 17.0246 25.4076 15.4249C25.4076 13.8251 24.1013 12.5283 22.4899 12.5283C20.8785 12.5283 19.5723 13.8251 19.5723 15.4249C19.5723 17.0246 20.8785 18.3214 22.4899 18.3214Z" fill="white"/>
<path d="M30.0718 15.6842C29.4178 15.444 28.6924 15.7744 28.4493 16.4226L26.816 20.7882L15.7881 17.3518L17.5176 13.8032C17.8211 13.1802 17.5586 12.4311 16.931 12.1298C16.3045 11.8284 15.5488 12.089 15.2453 12.7115L12.8791 17.5662C12.7192 17.8938 12.7111 18.2746 12.8564 18.6091C13.0023 18.9432 13.2869 19.1984 13.6369 19.3072L15.4403 19.8691L11.1124 22.3164L8.32817 23.1292C8.32546 23.1303 8.32275 23.1308 8.32004 23.1314L8.22933 23.1581L4.26386 18.2531C3.6098 17.4435 2.41776 17.3148 1.60278 17.9635C0.787244 18.6134 0.657053 19.7962 1.31111 20.6058L6.07054 26.4928C6.43564 26.9443 6.98227 27.1952 7.5472 27.1952C7.72489 27.1952 7.90478 27.1706 8.0814 27.1185L8.47514 27.0033L11.7271 29.5877C12.0728 29.8628 12.4919 30 12.91 30C13.3312 30 13.752 29.8612 14.0993 29.5829L17.5997 26.7786C17.6116 26.7689 17.6202 26.7571 17.6316 26.7469L23.3404 22.3325L27.2028 23.5362C27.3287 23.5753 27.4556 23.5942 27.5814 23.5942C28.0956 23.5942 28.5757 23.2799 28.7642 22.7775L30.815 17.296C31.058 16.6467 30.7253 15.925 30.0718 15.6842Z" fill="white"/>
<path d="M26.6484 12.0637C26.6484 12.3596 26.8903 12.5998 27.1885 12.5998C27.4866 12.5998 27.7286 12.3596 27.7286 12.0637V3.88724C27.7286 3.59129 27.4866 3.35107 27.1885 3.35107C26.8903 3.35107 26.6484 3.59129 26.6484 3.88724V12.0637Z" fill="white"/>
<path d="M25.8321 8.71316V0.536165C25.8321 0.240214 25.5901 0 25.292 0C24.9939 0 24.752 0.240214 24.752 0.536165V8.7131C24.752 9.00911 24.9939 9.24926 25.292 9.24926C25.5907 9.24932 25.8321 9.00911 25.8321 8.71316Z" fill="white"/>
<path d="M7.2998 10.1153V18.2916C7.2998 18.5882 7.54177 18.8278 7.83988 18.8278C8.13799 18.8278 8.37996 18.5882 8.37996 18.2916V10.1153C8.37996 9.81926 8.13799 9.5791 7.83988 9.5791C7.54172 9.57905 7.2998 9.81926 7.2998 10.1153Z" fill="white"/>
<path d="M9.19531 6.7637V14.9406C9.19531 15.2366 9.43728 15.4768 9.73539 15.4768C10.0336 15.4768 10.2755 15.2366 10.2755 14.9406V6.7637C10.2755 6.4677 10.0335 6.22754 9.73539 6.22754C9.43728 6.22754 9.19531 6.46775 9.19531 6.7637Z" fill="white"/>
</g>
<defs>
<clipPath id="clip0">
<rect width="30" height="30" fill="white" transform="translate(0.786133)"/>
</clipPath>
</defs>
</svg>
