<svg width="25" height="26" viewBox="0 0 25 26" fill="none" xmlns="http://www.w3.org/2000/svg">
<path fill-rule="evenodd" clip-rule="evenodd" d="M12.4957 0.5C19.3982 0.5 25 6.1018 25 13.0043C25 19.8982 19.3982 25.5 12.4957 25.5C5.59313 25.5 0 19.8982 0 13.0043C0 6.1018 5.59313 0.5 12.4957 0.5Z" fill="#E72D2D"/>
<path d="M17.9625 16.1619C17.9364 16.0007 17.8353 15.8629 17.6839 15.781L15.4441 14.4613L15.4257 14.451C15.3317 14.404 15.228 14.3799 15.123 14.3807C14.9353 14.3807 14.7561 14.4518 14.6317 14.5765L13.9707 15.2379C13.9424 15.2647 13.8502 15.3037 13.8222 15.3051C13.8146 15.3044 13.053 15.2496 11.651 13.8474C10.2514 12.4482 10.1921 11.6843 10.1916 11.6843C10.1924 11.6452 10.2308 11.5533 10.2582 11.5249L10.8219 10.9613C11.0205 10.7622 11.08 10.4322 10.9622 10.1766L9.71721 7.83396C9.62674 7.64771 9.45096 7.53271 9.25596 7.53271C9.118 7.53271 8.98487 7.5899 8.88081 7.69381L7.34409 9.22709C7.19674 9.37365 7.06987 9.6299 7.04221 9.83615C7.02878 9.93475 6.75612 12.2882 9.98268 15.5152C12.7219 18.2541 14.8578 18.4669 15.4477 18.4669C15.5195 18.4679 15.5913 18.4642 15.6627 18.4558C15.8683 18.4283 16.1242 18.3018 16.2707 18.1551L17.8061 16.6197C17.9314 16.4938 17.9886 16.3274 17.9625 16.1619Z" fill="white"/>
</svg>
