<svg width="17" height="19" viewBox="0 0 17 19" fill="none" xmlns="http://www.w3.org/2000/svg">
<path d="M3.25608 11.1888C3.61314 11.7252 3.9702 12.2617 4.41652 12.7087C4.9521 13.3345 5.57695 13.8709 6.29106 14.4073C8.34414 16.0166 10.9328 16.9106 13.5215 17C13.5215 17 14.1463 16.9106 14.3248 16.7318L15.4853 15.659C15.9316 15.3014 16.1101 14.4967 15.9316 13.9603L15.8423 13.6921C15.7531 13.3345 15.4853 12.9769 15.1282 12.7087C14.9497 12.5299 14.7712 12.4405 14.5926 12.3511L12.6288 11.7252C12.0932 11.5464 11.2899 11.7252 10.8435 12.0829L10.0402 12.7981C7.36223 11.9041 5.39842 9.75839 4.77357 7.07631L5.57695 6.36109C6.02327 6.00348 6.2018 5.19886 6.11253 4.66244L5.75548 2.60618C5.75548 2.51678 5.66621 2.33798 5.57695 2.24857C5.30916 1.80156 4.9521 1.35455 4.50578 1.17574L4.32725 1.08634C3.79167 0.907535 2.98829 0.996938 2.54197 1.44395L1.38154 2.42738C1.20301 2.69559 1.02448 3.232 1.02448 3.232C0.845952 6.09289 1.64933 8.86437 3.25608 11.1888Z" stroke="#E72D2D" stroke-width="2" stroke-miterlimit="10"/>
</svg>
