<svg width="20" height="22" viewBox="0 0 20 22" fill="none" xmlns="http://www.w3.org/2000/svg">
<path fill-rule="evenodd" clip-rule="evenodd" d="M10.7867 1C10.84 1 10.8933 1 10.9467 1C10.92 1.10719 10.92 1.18759 10.8933 1.29478C10.76 1.61636 10.8667 1.85755 11.16 1.99154C11.2933 2.04513 11.4267 2.09873 11.56 2.15233C11.9333 2.25952 12.3333 2.33992 12.7067 2.50071C13.56 2.82228 14.0933 3.41185 14.1733 4.34979C14.2267 4.77856 14.2 5.20733 14.2 5.63611C14.2 6.22567 14.2 6.81523 14.2 7.4048C14.2 7.56559 14.2267 7.69958 14.3867 7.77997C14.4933 7.83357 14.5467 7.96756 14.52 8.07475C14.4133 8.69111 14.28 9.30748 14.1467 9.92384C14.12 10.1114 12.5733 12.4161 12.6 12.5501C12.6267 12.9252 12.84 13.2468 12.8933 13.622C12.92 13.756 13.4 13.8632 13.5333 13.9168C13.6933 13.9972 13.8 14.1312 13.8533 14.292C13.9333 14.5063 13.9867 14.7475 14.0667 14.9619C14.0933 15.0423 14.1733 15.1227 14.2533 15.1763C14.8133 15.4979 15.4 15.7927 15.96 16.0874C16.8667 16.5698 17.7733 17.0522 18.68 17.5346C18.92 17.6417 19 17.8025 19 18.0705C19 18.5529 19 19.0621 19 19.5444C19 19.7588 18.9467 19.9464 18.7333 20.0536C15.48 20.0536 12.2267 20.0536 8.94667 20.0536C6.38667 20.0536 3.82667 20.0536 1.26667 20.0536C1.05333 19.9464 1 19.7588 1 19.5444C1 19.0353 1 18.5529 1 18.0437C1 17.8025 1.08 17.6417 1.29333 17.5346C1.96 17.1862 2.62667 16.8378 3.32 16.4626C4.12 16.0339 4.94667 15.6051 5.74667 15.1763C5.82667 15.1495 5.88 15.0423 5.93333 14.9619C6.01333 14.7475 6.06667 14.5063 6.17333 14.2652C6.22667 14.1312 6.73333 13.9972 6.86667 13.9168C7 13.8096 7.24 13.7292 7.26667 13.5684C7.29333 13.2468 7.50667 13.0056 7.56 12.6841C7.61333 12.4161 6.06667 10.5402 5.98667 10.2454C5.88 9.89704 5.77333 9.52186 5.69333 9.17348C5.61333 8.82511 5.56 8.44993 5.50667 8.07475C5.48 7.94076 5.48 7.80677 5.61333 7.75317C5.8 7.67278 5.82667 7.51199 5.82667 7.3244C5.82667 6.38646 5.82667 5.47532 5.82667 4.53738C5.82667 4.29619 5.88 4.05501 5.96 3.81382C6.17333 3.19746 6.6 2.76869 7.18667 2.5275C7.98667 2.15233 8.78667 1.83075 9.58667 1.48237C9.93333 1.32158 10.36 1.16079 10.7867 1Z" stroke="#142C60" stroke-width="2"/>
</svg>
