<svg width="20" height="20" viewBox="0 0 20 20" fill="none" xmlns="http://www.w3.org/2000/svg">
<path fill-rule="evenodd" clip-rule="evenodd" d="M10.8733 0C10.9326 0 10.9919 0 11.0511 0C11.0215 0.112518 11.0215 0.196906 10.9919 0.309423C10.8437 0.646976 10.9622 0.900141 11.2882 1.04079C11.4363 1.09705 11.5845 1.15331 11.7326 1.20956C12.1474 1.32208 12.5919 1.40647 13.0067 1.57525C13.9548 1.9128 14.5474 2.53165 14.6363 3.51617C14.6956 3.96624 14.6659 4.41632 14.6659 4.86639C14.6659 5.48523 14.6659 6.10408 14.6659 6.72293C14.6659 6.8917 14.6956 7.03235 14.8733 7.11674C14.9919 7.173 15.0511 7.31364 15.0215 7.42616C14.903 8.07314 14.7548 8.72011 14.6067 9.36709C14.577 9.56399 12.8585 11.9831 12.8882 12.1238C12.9178 12.5176 13.1548 12.8551 13.2141 13.2489C13.2437 13.3896 13.777 13.5021 13.9252 13.5584C14.103 13.6428 14.2215 13.7834 14.2807 13.9522C14.3696 14.1772 14.4289 14.4304 14.5178 14.6554C14.5474 14.7398 14.6363 14.8242 14.7252 14.8805C15.3474 15.218 15.9993 15.5274 16.6215 15.8368C17.6289 16.3432 18.6363 16.8495 19.6437 17.3558C19.9104 17.4684 19.9993 17.6371 19.9993 17.9184C19.9993 18.4248 19.9993 18.9592 19.9993 19.4655C19.9993 19.6906 19.94 19.8875 19.703 20C16.0882 20 12.4733 20 8.8289 20C5.98445 20 3.14001 20 0.295564 20C0.0585268 19.8875 -0.000732422 19.6906 -0.000732422 19.4655C-0.000732422 18.9311 -0.000732422 18.4248 -0.000732422 17.8903C-0.000732422 17.6371 0.0881565 17.4684 0.325194 17.3558C1.06593 16.9902 1.80667 16.6245 2.57705 16.2307C3.46593 15.7806 4.38445 15.3305 5.27334 14.8805C5.36223 14.8523 5.42149 14.7398 5.48075 14.6554C5.56964 14.4304 5.6289 14.1772 5.74742 13.9241C5.80667 13.7834 6.36964 13.6428 6.51779 13.5584C6.66593 13.4459 6.9326 13.3615 6.96223 13.1927C6.99186 12.8551 7.2289 12.602 7.28816 12.2644C7.34742 11.9831 5.6289 10.0141 5.54001 9.70464C5.42149 9.33896 5.30297 8.94515 5.21408 8.57947C5.12519 8.21378 5.06593 7.81997 5.00667 7.42616C4.97705 7.28551 4.97705 7.14487 5.12519 7.08861C5.3326 7.00422 5.36223 6.83544 5.36223 6.63854C5.36223 5.65401 5.36223 4.69761 5.36223 3.71308C5.36223 3.45992 5.42149 3.20675 5.51038 2.95359C5.74742 2.30661 6.22149 1.85654 6.87334 1.60338C7.76223 1.20956 8.65112 0.872011 9.54001 0.506329C9.92519 0.337553 10.3993 0.168776 10.8733 0Z" fill="#E72D2D"/>
</svg>
