<svg width="102" height="50" viewBox="0 0 102 50" fill="none" xmlns="http://www.w3.org/2000/svg">
<rect width="102" height="50" fill="#E72D2D"/>
<path d="M35.0351 31.216C38.2751 31.216 39.8411 29.56 39.8411 27.364C39.8411 22.882 32.9471 24.16 32.9471 22.252C32.9471 21.532 33.5591 21.046 34.6571 21.046C35.8811 21.046 37.1771 21.46 38.1491 22.36L39.5711 20.488C38.3831 19.39 36.7991 18.814 34.8911 18.814C32.0651 18.814 30.3371 20.47 30.3371 22.468C30.3371 26.986 37.2491 25.528 37.2491 27.652C37.2491 28.336 36.5651 28.984 35.1611 28.984C33.5051 28.984 32.1911 28.246 31.3451 27.364L29.9591 29.308C31.0751 30.442 32.7311 31.216 35.0351 31.216ZM52.5822 31L47.9562 18.994H44.7522L40.1082 31H43.0242L43.7802 28.966H48.9282L49.6662 31H52.5822ZM48.2262 26.716H44.4822L46.3542 21.55L48.2262 26.716ZM61.3229 31V28.75H56.2469V18.994H53.6909V31H61.3229ZM71.6088 31V28.75H65.6688V26.032H71.4828V23.782H65.6688V21.244H71.6088V18.994H63.1128V31H71.6088Z" fill="white"/>
</svg>
