<svg width="85" height="68" viewBox="0 0 85 68" fill="none" xmlns="http://www.w3.org/2000/svg">
<g clip-path="url(#clip0)">
<path d="M82.2999 55.3C82.2999 55.3 82.1999 66.5 68.3999 66.5C54.5999 66.5 16.3999 66.5 16.3999 66.5C7.2999 60 1.3999 49.4 1.3999 37.3C1.3999 17.5 17.4999 1.40002 37.2999 1.40002C50.8999 1.40002 62.7999 9.00003 68.7999 20.2" stroke="#142C60" stroke-width="3" stroke-miterlimit="10"/>
<path d="M80.7998 50.5H47.2998C45.5998 50.5 44.0998 49.6 43.1998 48.2L35.8998 36.4C32.7998 31.4 36.3998 25 42.2998 25H71.9998C72.7998 25 73.4998 25.5 73.7998 26.2L82.5998 47.7C83.1998 49.1 82.1998 50.5 80.7998 50.5Z" stroke="#142C60" stroke-width="3" stroke-miterlimit="10"/>
<path d="M11.5 29.7C13.6 21.4 19.5 14.6 27.2 11.2" stroke="#E72D2D" stroke-width="2" stroke-miterlimit="10"/>
<path d="M10.6001 38.2C10.6001 37.7 10.6001 37.2 10.6001 36.7C10.6001 36 10.6001 35.3 10.7001 34.6" stroke="#E72D2D" stroke-width="2" stroke-miterlimit="10"/>
<path d="M43.1003 35.5999C44.6467 35.5999 45.9003 34.3463 45.9003 32.7999C45.9003 31.2535 44.6467 29.9999 43.1003 29.9999C41.5539 29.9999 40.3003 31.2535 40.3003 32.7999C40.3003 34.3463 41.5539 35.5999 43.1003 35.5999Z" stroke="#E72D2D" stroke-width="2" stroke-miterlimit="10"/>
</g>
<defs>
<clipPath id="clip0">
<rect width="84.3" height="68" fill="white"/>
</clipPath>
</defs>
</svg>
