<svg width="77" height="68" viewBox="0 0 77 68" fill="none" xmlns="http://www.w3.org/2000/svg">
<g clip-path="url(#clip0)">
<path d="M1.5 33.4C1.6 33.2 1.7 32.9 1.8 32.7C2.5 31.3 3.6 30.7 5.2 30.7C12.1 30.7 18.9 30.7 25.8 30.7C26.2 30.7 26.6 30.8 27 30.8C27.1 30.8 27.2 30.8 27.2 30.9C27.8 31.4 28.3 31 28.7 30.6C29.9 29 31.2 27.5 32.2 25.9C34.2 22.7 36.1 19.3 38 16C38.4 15.3 38.6 14.6 38.6 13.7C38.5 11.2 38.5 8.69997 38.4 6.19997C38.4 4.39997 39.2 3.19997 40.7 2.39997C43 1.19997 45.4 1.19997 47.8 2.19997C49.1 2.69997 49.9 3.69997 50.4 4.89997C51.2 7.09997 52.1 9.39997 52.9 11.7C53.8 14.2 53.7 16.8 53.2 19.4C52.8 21.3 52.5 23.3 52.2 25.2C52.1 25.9 52.1 25.9 52.8 25.9C58.1 25.9 63.4 25.9 68.7 25.9C69.7 25.9 70.7 26 71.6 26.4C73.4 27 74.4 28.5 74.9 30.3C75 30.5 75 30.7 75.1 31C75.1 31.7 75.1 32.3 75.1 33L75 33.1C74.7 34.5 74.2 35.8 73.2 36.9C73.1 37 73.1 37.3 73.2 37.5C73.4 38.4 73.7 39.2 73.7 40.1C73.8 41.9 73.1 43.5 71.9 45C71.7 45.3 71.7 45.5 71.8 45.9C72 46.6 72.2 47.3 72.3 47.9C72.4 49.9 71.7 51.7 70.5 53.2C70.4 53.4 70.3 53.6 70.3 53.8C70.7 54.9 70.8 56.1 70.7 57.3C70.5 60.4 68.6 62.8 65.6 63.8C64.1 64.3 62.5 64.4 61 64.4C52 64.4 43 64.4 33.9 64.4C31.8 64.4 30 63.9 28.3 62.8C28 62.6 27.5 62.5 27 62.4C27 62.9 27 63.1 27 63.4C26.9 65.3 25.7 66.6 23.9 66.6C17.5 66.6 11.1 66.6 4.8 66.6C3.9 66.6 3.1 66.3 2.5 65.6C2.1 65.2 1.9 64.6 1.6 64.1C1.5 53.9 1.5 43.6 1.5 33.4Z" stroke="#142C60" stroke-width="3" stroke-miterlimit="10"/>
<path d="M26.8999 30.8V62.3" stroke="#142C60" stroke-width="3" stroke-miterlimit="10"/>
<path d="M17.8 59C19.8987 59 21.6 57.2987 21.6 55.2C21.6 53.1013 19.8987 51.4 17.8 51.4C15.7013 51.4 14 53.1013 14 55.2C14 57.2987 15.7013 59 17.8 59Z" stroke="#E72D2D" stroke-width="2" stroke-miterlimit="10"/>
</g>
<defs>
<clipPath id="clip0">
<rect width="76.5" height="68" fill="white"/>
</clipPath>
</defs>
</svg>
