<svg width="13" height="16" viewBox="0 0 13 16" fill="none" xmlns="http://www.w3.org/2000/svg">
<path d="M7.94586 0.703125H5.05731C4.66013 0.703125 4.33517 1.02455 4.33517 1.41741C4.33517 1.81027 4.66013 2.1317 5.05731 2.1317H7.94586C8.34303 2.1317 8.66799 1.81027 8.66799 1.41741C8.66799 1.02455 8.34303 0.703125 7.94586 0.703125ZM6.50158 9.98884C6.89876 9.98884 7.22372 9.66741 7.22372 9.27455V6.41741C7.22372 6.02455 6.89876 5.70312 6.50158 5.70312C6.10441 5.70312 5.77945 6.02455 5.77945 6.41741V9.27455C5.77945 9.66741 6.10441 9.98884 6.50158 9.98884ZM11.5782 5.26741L12.1198 4.7317C12.2533 4.59881 12.3283 4.41906 12.3283 4.2317C12.3283 4.04434 12.2533 3.86459 12.1198 3.7317L12.1126 3.72455C11.9782 3.59248 11.7965 3.51834 11.6071 3.51834C11.4177 3.51834 11.2359 3.59248 11.1016 3.72455L10.56 4.26027C9.40987 3.34479 7.97787 2.84576 6.50158 2.84598C3.03533 2.84598 0.0890071 5.67455 0.00235064 9.10312C-0.0210031 9.9617 0.129858 10.8162 0.446021 11.6161C0.762184 12.4161 1.23724 13.1452 1.84311 13.7605C2.44898 14.3757 3.17338 14.8646 3.9735 15.1983C4.77363 15.532 5.63325 15.7036 6.50158 15.7031C7.72511 15.7038 8.92393 15.3626 9.95999 14.7188C10.996 14.075 11.8272 13.1549 12.3577 12.0644C12.8882 10.9738 13.0965 9.75724 12.9586 8.55473C12.8207 7.35222 12.3422 6.2127 11.5782 5.26741ZM6.50158 14.2746C3.70691 14.2746 1.44662 12.0388 1.44662 9.27455C1.44662 6.51027 3.70691 4.27455 6.50158 4.27455C9.29625 4.27455 11.5565 6.51027 11.5565 9.27455C11.5565 12.0388 9.29625 14.2746 6.50158 14.2746Z" fill="white"/>
</svg>
