<svg width="27" height="30" viewBox="0 0 27 30" fill="none" xmlns="http://www.w3.org/2000/svg">
<path d="M16.6778 0H10.9008C10.1064 0 9.45648 0.642857 9.45648 1.42857C9.45648 2.21429 10.1064 2.85714 10.9008 2.85714H16.6778C17.4722 2.85714 18.1221 2.21429 18.1221 1.42857C18.1221 0.642857 17.4722 0 16.6778 0ZM13.7893 18.5714C14.5837 18.5714 15.2336 17.9286 15.2336 17.1429V11.4286C15.2336 10.6429 14.5837 10 13.7893 10C12.9949 10 12.345 10.6429 12.345 11.4286V17.1429C12.345 17.9286 12.9949 18.5714 13.7893 18.5714ZM23.9425 9.12857L25.0258 8.05714C25.2928 7.79136 25.4427 7.43186 25.4427 7.05714C25.4427 6.68242 25.2928 6.32292 25.0258 6.05714L25.0113 6.04286C24.7426 5.7787 24.3792 5.63044 24.0003 5.63044C23.6215 5.63044 23.258 5.7787 22.9893 6.04286L21.9061 7.11429C19.6059 5.28332 16.7419 4.28527 13.7893 4.28571C6.85678 4.28571 0.964147 9.94286 0.790834 16.8C0.744127 18.5172 1.04585 20.2262 1.67818 21.826C2.3105 23.4259 3.2606 24.8842 4.47234 26.1147C5.68409 27.3452 7.13288 28.323 8.73314 28.9904C10.3334 29.6577 12.0526 30.001 13.7893 30C16.2363 30.0013 18.634 29.3189 20.7061 28.0314C22.7782 26.7438 24.4405 24.9036 25.5015 22.7225C26.5626 20.5414 26.9792 18.1082 26.7033 15.7032C26.4275 13.2982 25.4705 11.0192 23.9425 9.12857ZM13.7893 27.1429C8.19996 27.1429 3.67938 22.6714 3.67938 17.1429C3.67938 11.6143 8.19996 7.14286 13.7893 7.14286C19.3786 7.14286 23.8992 11.6143 23.8992 17.1429C23.8992 22.6714 19.3786 27.1429 13.7893 27.1429Z" fill="white"/>
</svg>
