<svg width="28" height="28" viewBox="0 0 28 28" fill="none" xmlns="http://www.w3.org/2000/svg">
<path d="M22.9885 9.13165C23.1342 8.66077 22.9885 8.302 22.2934 8.302H20.0287C19.4457 8.302 19.1878 8.60471 19.0421 8.94105C19.0421 8.94105 17.8873 11.7551 16.2504 13.5938C15.7123 14.1207 15.4768 14.2889 15.1853 14.2889C15.0396 14.2889 14.8041 14.1207 14.8041 13.6386V9.13165C14.8041 8.55986 14.6696 8.302 14.1875 8.302H10.6111C10.2523 8.302 10.0393 8.57108 10.0393 8.82894C10.0393 9.36709 10.8801 9.50162 10.9362 11.0376V14.3786C10.9362 15.1186 10.8017 15.2531 10.5214 15.2531C9.759 15.2531 7.87548 12.4166 6.76555 9.1877C6.54132 8.55986 6.3283 8.302 5.74531 8.302H3.46939C2.83034 8.302 2.6958 8.60471 2.6958 8.94105C2.6958 9.54647 3.46939 12.5287 6.28346 16.4751C8.15577 19.1771 10.8017 20.6346 13.2121 20.6346C14.6584 20.6346 14.8378 20.3094 14.8378 19.7489V17.7084C14.8378 17.0693 14.9723 16.9348 15.432 16.9348C15.7683 16.9348 16.3401 17.103 17.6855 18.3923C19.2327 19.9395 19.4793 20.6346 20.3538 20.6346H22.6185C23.2688 20.6346 23.5939 20.3094 23.4145 19.6704C23.2127 19.0313 22.4728 18.1008 21.4974 17.0021C20.9704 16.3854 20.1744 15.7128 19.9278 15.3652C19.5914 14.9392 19.6923 14.7486 19.9278 14.3562C19.9278 14.3562 22.697 10.4658 22.9885 9.13165Z" fill="white"/>
</svg>
