<svg width="27" height="28" viewBox="0 0 27 28" fill="none" xmlns="http://www.w3.org/2000/svg">
<path d="M22.6262 9.13177C22.7719 8.66089 22.6262 8.30212 21.9311 8.30212H19.6664C19.0834 8.30212 18.8255 8.60483 18.6798 8.94118C18.6798 8.94118 17.525 11.7552 15.8881 13.5939C15.35 14.1209 15.1145 14.289 14.823 14.289C14.6773 14.289 14.4418 14.1209 14.4418 13.6388V9.13177C14.4418 8.55999 14.3073 8.30212 13.8252 8.30212H10.2488C9.89 8.30212 9.67698 8.5712 9.67698 8.82906C9.67698 9.36721 10.5178 9.50175 10.5739 11.0377V14.3787C10.5739 15.1187 10.4394 15.2532 10.1591 15.2532C9.3967 15.2532 7.51318 12.4167 6.40324 9.18783C6.17902 8.55999 5.966 8.30212 5.383 8.30212H3.10708C2.46803 8.30212 2.3335 8.60483 2.3335 8.94118C2.3335 9.54659 3.10708 12.5288 5.92115 16.4753C7.79346 19.1772 10.4394 20.6347 12.8498 20.6347C14.2961 20.6347 14.4755 20.3096 14.4755 19.749V17.7085C14.4755 17.0695 14.61 16.9349 15.0697 16.9349C15.406 16.9349 15.9778 17.1031 17.3232 18.3924C18.8704 19.9396 19.117 20.6347 19.9915 20.6347H22.2562C22.9065 20.6347 23.2316 20.3096 23.0522 19.6705C22.8504 19.0315 22.1105 18.1009 21.1351 17.0022C20.6081 16.3856 19.8121 15.7129 19.5655 15.3653C19.2291 14.9393 19.33 14.7487 19.5655 14.3563C19.5655 14.3563 22.3347 10.4659 22.6262 9.13177Z" fill="#999EA7"/>
</svg>
