<svg width="26" height="18" viewBox="0 0 26 18" fill="none" xmlns="http://www.w3.org/2000/svg">
<path d="M24.9782 2.81178C24.8359 2.26731 24.5569 1.77078 24.1691 1.37189C23.7813 0.972995 23.2983 0.685735 22.7684 0.538854C20.8181 1.09338e-07 13 0 13 0C13 0 5.18192 -1.09338e-07 3.23158 0.535987C2.70151 0.682392 2.21826 0.969493 1.83037 1.36846C1.44249 1.76742 1.16361 2.26421 1.02176 2.80892C0.5 4.81529 0.5 9 0.5 9C0.5 9 0.5 13.1847 1.02176 15.1882C1.30915 16.2946 2.15737 17.1659 3.23158 17.4611C5.18192 18 13 18 13 18C13 18 20.8181 18 22.7684 17.4611C23.8454 17.1659 24.6908 16.2946 24.9782 15.1882C25.5 13.1847 25.5 9 25.5 9C25.5 9 25.5 4.81529 24.9782 2.81178ZM10.5167 12.8408V5.15924L16.99 8.97134L10.5167 12.8408Z" fill="#999EA7"/>
</svg>
