<svg width="28" height="28" viewBox="0 0 28 28" fill="none" xmlns="http://www.w3.org/2000/svg">
<path d="M23.4152 8.47687C22.8678 7.53266 22.2737 7.35899 21.0641 7.29294C19.8558 7.21344 16.8174 7.18042 14.1851 7.18042C11.5477 7.18042 8.50805 7.21344 7.301 7.29172C6.09395 7.35899 5.49862 7.53144 4.94618 8.47687C4.38238 9.41985 4.09229 11.0441 4.09229 13.9036C4.09229 13.9061 4.09229 13.9073 4.09229 13.9073C4.09229 13.9097 4.09229 13.9109 4.09229 13.9109V13.9134C4.09229 16.7607 4.38238 18.3971 4.94618 19.3303C5.49862 20.2746 6.09268 20.4458 7.29974 20.5253C8.50805 20.5938 11.5477 20.6341 14.1851 20.6341C16.8174 20.6341 19.8558 20.5938 21.0654 20.5265C22.275 20.447 22.869 20.2758 23.4164 19.3316C23.9853 18.3984 24.2729 16.7619 24.2729 13.9146C24.2729 13.9146 24.2729 13.9109 24.2729 13.9085C24.2729 13.9085 24.2729 13.9061 24.2729 13.9048C24.2729 11.0441 23.9853 9.41985 23.4152 8.47687ZM11.66 17.5765V10.2381L17.9664 13.9073L11.66 17.5765Z" fill="white"/>
</svg>
